<svg width="159" height="135" viewBox="0 0 159 135" fill="none" xmlns="http://www.w3.org/2000/svg">
<path d="M146.11 106.569C146.24 108.219 142 111.919 141.61 108.959C141.63 109.099 141.64 109.259 141.65 109.399C140.61 100.859 137.23 92.7294 133.03 85.2794C128.99 78.2994 123.96 71.9194 118.28 66.1994C115.07 62.9594 111.65 59.9394 108.07 57.1294C108.07 63.6394 107.55 70.1594 106.51 76.5894C105.36 82.1194 100.02 111.939 92.6902 109.339C92.3002 108.939 92.3302 108.129 92.5302 107.669C95.6302 100.439 98.0602 92.9294 99.7202 85.2394C101.91 75.4694 102.92 61.5694 101.9 50.2294C100.69 37.0294 97.7602 23.8294 92.2002 11.7494C91.9202 9.45938 94.4502 7.06938 96.6202 6.71938C98.6202 6.68938 99.9202 12.9294 100.86 14.6994C102.6 19.5294 103.99 24.4794 105.09 29.4894C106.31 35.0894 107.16 40.7694 107.63 46.4894C108.84 45.6494 110.04 44.8294 110.93 43.8894C110.6 44.1794 110.27 44.4594 109.95 44.7494C111.62 43.2894 113.2 41.7194 114.69 40.0794C114.62 40.1694 114.55 40.2494 114.47 40.3494C114.76 40.0194 115.04 39.6994 115.33 39.3694C115.17 39.5494 115.01 39.7294 114.85 39.9094C116.55 37.9294 118.12 35.8494 119.56 33.6794C119.48 33.8194 119.39 33.9594 119.29 34.0994C119.51 33.7594 119.72 33.4294 119.94 33.0994C119.81 33.2894 119.69 33.4894 119.55 33.6794C121.62 30.4494 123.43 27.0694 124.99 23.5694C124.9 23.7894 124.81 23.9994 124.71 24.2094C124.85 23.8794 125 23.5594 125.14 23.2394C125.09 23.3494 125.04 23.4594 124.99 23.5694C127.17 18.5194 128.9 13.2694 130.08 7.88938C130.1 7.80938 130.12 7.72938 130.13 7.65938C130.24 7.07938 130.35 6.49938 130.44 5.90938C130.98 2.96938 134.01 -0.280623 137.16 0.0193768C139.35 1.18938 137.28 4.61938 137.16 6.53938C134.18 18.8594 128.76 30.7494 120.7 40.5894C119.42 42.0794 114.33 47.8594 109.83 51.3594C115.95 55.9594 121.66 61.1294 126.71 66.8894C136.34 78.1194 144.34 91.6894 146.13 106.579L146.11 106.569Z" fill="#0284C7"/>
<path d="M115.31 39.3494C115.03 39.6794 114.74 39.9994 114.45 40.3294Z" fill="#FBBF24"/>
<path d="M119.93 33.0894C119.71 33.4194 119.5 33.7494 119.28 34.0894C119.37 33.9494 119.46 33.8094 119.55 33.6694C119.68 33.4794 119.81 33.2794 119.94 33.0894H119.93Z" fill="#FBBF24"/>
<path d="M125.13 23.2194C124.99 23.5494 124.85 23.8694 124.7 24.1894C124.8 23.9794 124.89 23.7694 124.98 23.5494C125.03 23.4394 125.08 23.3294 125.13 23.2194Z" fill="#FBBF24"/>
<path d="M61.2402 89.7194C71.9502 80.1294 88.9302 72.2094 99.4002 57.4194C68.2902 52.9294 49.4202 74.7094 47.7102 103.389C75.2102 106.729 102.56 88.6594 100.9 59.3594C91.0002 73.0494 77.2102 83.6894 61.2402 89.7094V89.7194Z" fill="#DB2777"/>
<path d="M58.53 22.0658C69.24 31.6558 86.22 39.5758 96.69 54.3658C65.58 58.8558 46.71 37.0758 45 8.39576C72.5 5.05576 99.85 23.1258 98.19 52.4258C88.29 38.7358 74.5 28.0958 58.53 22.0758V22.0658Z" fill="#DB2777"/>
<path d="M19.1624 57.6286C33.3641 58.5069 51.32 54.2265 68.5934 59.302C47.5904 81.9417 19.5111 76.5913 0.247747 55.3082C19.2073 35.7855 51.4552 33.0286 68.5271 56.8682C52.3786 52.2985 35.1619 52.4978 19.1686 57.6364L19.1624 57.6286Z" fill="#DB2777"/>
<path d="M143.239 24.2694C143.51 23.9979 144.11 23.896 145.038 23.9639C145.966 24.0318 146.656 24.292 147.108 24.7446C147.561 25.1971 148.302 26.0739 149.331 27.375C150.35 28.6648 151.13 29.7282 151.673 30.5655C154.83 35.6001 156.221 38.304 155.848 38.6774C155.599 38.9263 155.09 39.0394 154.321 39.0168C153.551 38.9715 153.037 38.8188 152.776 38.5586C152.754 38.536 152.318 37.7949 151.47 36.3355C150.621 34.876 149.444 33.0884 147.94 30.9728C146.435 28.8345 144.857 26.9394 143.205 25.2876C142.877 24.9595 142.888 24.6201 143.239 24.2694Z" fill="#FBBF24"/>
<path d="M138.731 28.7772C139.003 28.5057 139.602 28.4038 140.53 28.4717C141.458 28.5396 142.148 28.7998 142.6 29.2524C143.053 29.7049 143.794 30.5817 144.824 31.8828C145.842 33.1726 146.622 34.2361 147.165 35.0733C150.322 40.1079 151.714 42.8118 151.34 43.1852C151.091 43.4341 150.582 43.5472 149.813 43.5246C149.044 43.4794 148.529 43.3266 148.269 43.0664C148.246 43.0438 147.81 42.3027 146.962 40.8433C146.113 39.3838 144.937 37.5962 143.432 35.4806C141.927 33.3423 140.349 31.4472 138.697 29.7954C138.369 29.4673 138.38 29.1279 138.731 28.7772Z" fill="#FBBF24"/>
<path d="M142.769 48.2943C143.109 47.4118 143.092 46.3313 142.718 45.0529C142.345 43.7744 141.796 42.7732 141.072 42.0491C140.348 41.325 139.748 40.929 139.273 40.8612C139.07 41.6305 139.177 42.7109 139.596 44.1025C140.026 45.4828 140.586 46.518 141.276 47.2081C141.955 47.887 142.452 48.249 142.769 48.2943ZM139.171 49.6519C137.757 48.2377 136.852 46.4614 136.456 44.3232C136.071 42.1735 136.309 40.6688 137.169 39.809C138.029 38.9491 139.058 38.5305 140.257 38.5532C141.445 38.5645 142.469 39 143.329 39.8599C144.178 40.7084 144.84 41.7776 145.315 43.0673C145.79 44.3571 145.954 45.6638 145.807 46.9875C145.648 48.2999 145.151 49.3747 144.313 50.2119C143.691 50.8342 142.877 51.0944 141.87 50.9926C140.863 50.8908 139.963 50.4439 139.171 49.6519Z" fill="#FBBF24"/>
<path d="M133.477 61.0148L133.443 61.0487C133.194 61.2976 132.656 61.3825 131.831 61.3033C130.993 61.2128 130.405 60.9978 130.066 60.6584C129.715 60.3077 128.493 58.4296 126.4 55.0242C124.318 51.6074 122.915 49.537 122.191 48.8129C121.739 48.3604 121.677 47.9701 122.005 47.642C122.276 47.3704 122.876 47.3139 123.803 47.4723C124.72 47.6193 125.421 47.9361 125.908 48.4226C126.202 48.7168 126.807 49.6162 127.724 51.1209C127.418 48.96 127.26 47.0593 127.249 45.4188C127.226 43.767 127.362 42.794 127.656 42.4999C127.961 42.1944 128.397 42.019 128.963 41.9738C129.517 41.9172 129.89 41.9851 130.083 42.1774C130.264 42.3585 130.337 43.009 130.303 44.1291C130.269 45.2491 130.247 46.652 130.235 48.3378C130.224 50.0235 130.348 51.4603 130.609 52.6483C131.48 53.5194 132.86 53.8928 134.75 53.7683C135.315 53.7231 135.994 53.5873 136.786 53.361C137.567 53.1234 138.2 52.9651 138.687 52.8859C139.173 52.784 139.518 52.835 139.722 53.0386C140.299 53.6156 140.18 54.3114 139.366 55.126C138.551 55.9406 137.346 56.4893 135.751 56.7721C134.144 57.0436 132.56 56.8626 130.999 56.2291C131.542 57.3604 131.972 58.1524 132.289 58.6049C132.594 59.0462 132.792 59.346 132.883 59.5044C132.985 59.6515 133.064 59.7759 133.12 59.8777C133.166 59.9682 133.222 60.0701 133.29 60.1832C133.358 60.2963 133.409 60.3925 133.443 60.4717C133.465 60.5396 133.488 60.6075 133.511 60.6753C133.545 60.8451 133.533 60.9582 133.477 61.0148Z" fill="#FBBF24"/>
<path d="M153.183 123.693L153.133 122.445C153.133 121.923 153.255 121.662 153.499 121.662C153.71 121.662 153.91 121.801 154.099 122.078C154.299 122.345 154.399 122.667 154.399 123.044C154.399 123.41 154.387 123.688 154.365 123.877C155.331 122.411 156.247 121.679 157.113 121.679C157.656 121.679 157.928 121.812 157.928 122.078C157.928 122.212 157.867 122.334 157.745 122.445C157.623 122.556 157.429 122.683 157.162 122.828C156.574 123.083 156.075 123.477 155.664 124.01C155.264 124.531 154.937 125.125 154.682 125.791C154.426 126.457 154.221 127.018 154.066 127.473C153.921 127.928 153.81 128.283 153.733 128.539C153.655 128.794 153.566 129.044 153.466 129.288C153.289 129.732 153.083 129.954 152.85 129.954C152.661 129.954 152.506 129.848 152.384 129.638C152.273 129.416 152.217 129.205 152.217 129.005C152.217 128.794 152.312 128.383 152.5 127.773C152.956 126.374 153.183 125.014 153.183 123.693Z" fill="#FBBF24"/>
<path d="M151.332 124.426C151.332 125.014 151.01 125.497 150.366 125.875C149.733 126.241 149.012 126.424 148.201 126.424C147.402 126.424 146.675 126.335 146.02 126.158C145.865 126.646 145.787 127.084 145.787 127.473C145.787 127.85 145.904 128.145 146.137 128.355C146.381 128.566 146.775 128.672 147.319 128.672C147.874 128.672 148.44 128.577 149.017 128.389C149.606 128.189 149.927 128.089 149.983 128.089C150.272 128.089 150.416 128.2 150.416 128.422C150.416 128.722 150.077 129.049 149.4 129.404C148.723 129.749 148.063 129.921 147.419 129.921C146.553 129.921 145.848 129.665 145.304 129.155C144.76 128.633 144.488 127.978 144.488 127.19C144.488 126.402 144.699 125.58 145.121 124.726C145.543 123.86 146.087 123.133 146.753 122.545C147.419 121.956 148.079 121.662 148.734 121.662C149.389 121.662 149.983 121.973 150.516 122.594C151.06 123.216 151.332 123.827 151.332 124.426ZM148.817 122.977C148.407 122.977 147.979 123.194 147.535 123.627C147.091 124.049 146.714 124.576 146.403 125.209C146.847 125.308 147.352 125.358 147.918 125.358C148.484 125.358 148.978 125.27 149.4 125.092C149.822 124.903 150.033 124.659 150.033 124.359C150.033 124.06 149.894 123.754 149.617 123.444C149.35 123.133 149.084 122.977 148.817 122.977Z" fill="#FBBF24"/>
<path d="M142.182 121.612C142.659 121.612 143.07 121.917 143.414 122.528C143.769 123.138 143.947 123.771 143.947 124.426C143.947 125.07 143.758 125.719 143.38 126.374C143.003 127.018 142.537 127.595 141.982 128.106C141.427 128.616 140.811 129.044 140.134 129.388C139.468 129.721 138.852 129.887 138.286 129.887C138.064 129.887 137.853 129.86 137.653 129.804C137.608 129.993 137.531 130.331 137.42 130.82C137.309 131.308 137.214 131.713 137.137 132.035C137.059 132.357 136.97 132.701 136.87 133.067C136.67 133.822 136.493 134.2 136.337 134.2C136.182 134.2 136.021 134.078 135.855 133.833C135.677 133.6 135.588 133.389 135.588 133.201C135.588 133.012 135.766 132.202 136.121 130.77C137.187 126.452 137.719 123.544 137.719 122.045C137.719 121.712 137.842 121.546 138.086 121.546C138.286 121.546 138.524 121.695 138.802 121.995C139.09 122.284 139.235 122.606 139.235 122.961C139.235 123.138 139.212 123.333 139.168 123.544C140.156 122.256 141.16 121.612 142.182 121.612ZM138.119 128.589C138.707 128.589 139.34 128.389 140.017 127.989C140.705 127.59 141.288 127.062 141.765 126.407C142.254 125.741 142.498 125.081 142.498 124.426C142.498 123.505 142.282 123.044 141.849 123.044C141.416 123.044 140.827 123.416 140.084 124.16C139.351 124.903 138.768 125.869 138.335 127.057L137.952 128.589H138.119Z" fill="#FBBF24"/>
<path d="M135.936 118.399C135.936 120.485 135.503 123.194 134.637 126.524C134.082 128.788 133.694 129.921 133.472 129.921C133.316 129.921 133.133 129.798 132.922 129.554C132.722 129.31 132.622 129.121 132.622 128.988C132.622 128.855 132.783 128.167 133.105 126.924C133.427 125.68 133.749 124.154 134.071 122.345C134.393 120.524 134.554 118.887 134.554 117.433C134.554 117.278 134.576 117.167 134.621 117.1C134.665 117.033 134.759 117 134.904 117C135.048 117 135.253 117.161 135.52 117.483C135.797 117.794 135.936 118.099 135.936 118.399Z" fill="#FBBF24"/>
<path d="M131.803 124.426C131.803 125.014 131.481 125.497 130.838 125.875C130.205 126.241 129.483 126.424 128.673 126.424C127.874 126.424 127.147 126.335 126.492 126.158C126.337 126.646 126.259 127.084 126.259 127.473C126.259 127.85 126.375 128.145 126.609 128.355C126.853 128.566 127.247 128.672 127.791 128.672C128.346 128.672 128.912 128.577 129.489 128.389C130.077 128.189 130.399 128.089 130.455 128.089C130.743 128.089 130.888 128.2 130.888 128.422C130.888 128.722 130.549 129.049 129.872 129.404C129.195 129.749 128.534 129.921 127.891 129.921C127.025 129.921 126.32 129.665 125.776 129.155C125.232 128.633 124.96 127.978 124.96 127.19C124.96 126.402 125.171 125.58 125.593 124.726C126.015 123.86 126.559 123.133 127.225 122.545C127.891 121.956 128.551 121.662 129.206 121.662C129.861 121.662 130.455 121.973 130.988 122.594C131.531 123.216 131.803 123.827 131.803 124.426ZM129.289 122.977C128.878 122.977 128.451 123.194 128.007 123.627C127.563 124.049 127.186 124.576 126.875 125.209C127.319 125.308 127.824 125.358 128.39 125.358C128.956 125.358 129.45 125.27 129.872 125.092C130.294 124.903 130.505 124.659 130.505 124.359C130.505 124.06 130.366 123.754 130.088 123.444C129.822 123.133 129.556 122.977 129.289 122.977Z" fill="#FBBF24"/>
<path d="M118.198 117.649C118.198 117.216 118.331 117 118.598 117C118.808 117 119.03 117.167 119.264 117.5C119.508 117.833 119.63 118.154 119.63 118.465C119.63 119.187 119.447 120.419 119.08 122.162C118.725 123.893 118.259 125.625 117.682 127.356C118.792 125.347 119.719 123.899 120.462 123.011C121.217 122.112 121.861 121.662 122.394 121.662C122.682 121.662 123.015 121.912 123.393 122.411C123.781 122.911 123.976 123.41 123.976 123.91C123.976 124.409 123.837 125.159 123.559 126.158C122.871 128.666 122.222 129.921 121.611 129.921C121.367 129.921 121.245 129.754 121.245 129.421C121.245 129.088 121.378 128.528 121.645 127.739C122.233 126.019 122.527 124.859 122.527 124.26C122.527 124.06 122.477 123.893 122.377 123.76C122.277 123.627 122.155 123.56 122.011 123.56C121.867 123.56 121.689 123.638 121.478 123.793C121.267 123.949 121.012 124.221 120.712 124.609C120.335 125.109 119.941 125.669 119.53 126.291C119.13 126.912 118.886 127.29 118.797 127.423C118.72 127.545 118.575 127.773 118.364 128.106C118.165 128.439 118.015 128.688 117.915 128.855C117.815 129.01 117.693 129.182 117.549 129.371C117.293 129.737 117.099 129.921 116.966 129.921C116.833 129.921 116.655 129.798 116.433 129.554C116.211 129.299 116.1 129.088 116.1 128.922C116.1 128.744 116.161 128.417 116.283 127.939C116.838 125.808 117.188 124.348 117.332 123.56C117.909 120.674 118.198 118.704 118.198 117.649Z" fill="#FBBF24"/>
<path d="M108.241 125.425C108.241 125.869 108.047 126.374 107.659 126.94C107.359 127.617 107.037 128.594 106.693 129.871C106.349 131.136 106.06 132.041 105.827 132.585C105.361 133.717 104.645 134.283 103.679 134.283C102.891 134.283 102.225 134.066 101.681 133.634C101.148 133.212 100.882 132.79 100.882 132.368C100.882 132.191 100.938 132.013 101.049 131.835C101.148 131.658 101.254 131.569 101.365 131.569C101.487 131.569 101.62 131.652 101.765 131.819C101.909 131.985 102.042 132.163 102.164 132.352C102.297 132.551 102.492 132.734 102.747 132.901C103.013 133.067 103.269 133.151 103.513 133.151C103.757 133.151 103.94 133.112 104.062 133.034C104.184 132.968 104.301 132.851 104.412 132.685C104.523 132.529 104.617 132.368 104.695 132.202C104.773 132.046 104.856 131.819 104.945 131.519C105.045 131.23 105.122 130.981 105.178 130.77C105.233 130.559 105.311 130.265 105.411 129.887C105.511 129.499 105.594 129.188 105.661 128.955C104.795 129.599 104.09 129.921 103.546 129.921C103.002 129.921 102.53 129.704 102.131 129.271C101.731 128.827 101.531 128.317 101.531 127.739C101.531 127.151 101.748 126.374 102.181 125.408C102.625 124.443 103.219 123.577 103.962 122.811C104.706 122.045 105.433 121.662 106.144 121.662C106.599 121.662 106.982 121.834 107.292 122.178C107.803 122.744 108.058 123.549 108.058 124.593C108.058 124.726 108.053 124.82 108.042 124.876C108.175 125.064 108.241 125.247 108.241 125.425ZM102.88 127.906C102.88 128.095 102.941 128.25 103.063 128.372C103.185 128.483 103.341 128.539 103.529 128.539C104.084 128.539 104.739 128.211 105.494 127.556C106.249 126.89 106.782 126.119 107.093 125.242C107.048 125.098 107.009 124.876 106.976 124.576C106.943 124.276 106.909 124.037 106.876 123.86C106.843 123.682 106.771 123.505 106.66 123.327C106.549 123.138 106.404 123.044 106.227 123.044C105.794 123.044 105.305 123.355 104.762 123.976C104.218 124.598 103.768 125.292 103.413 126.058C103.058 126.824 102.88 127.44 102.88 127.906Z" fill="#FBBF24"/>
<path d="M94.4017 127.023C95.4673 125.214 96.3331 123.871 96.9991 122.994C97.6763 122.106 98.2257 121.662 98.6475 121.662C99.0804 121.662 99.4856 121.89 99.863 122.345C100.251 122.8 100.446 123.283 100.446 123.793C100.446 124.593 100.263 125.569 99.8963 126.724C99.2303 128.855 98.6309 129.921 98.0981 129.921C97.8539 129.921 97.7318 129.754 97.7318 129.421C97.7318 129.188 97.8483 128.716 98.0814 128.006C98.3256 127.284 98.5476 126.579 98.7474 125.891C98.9583 125.192 99.0638 124.67 99.0638 124.326C99.0638 123.971 99.0083 123.71 98.8973 123.544C98.7974 123.377 98.6919 123.294 98.5809 123.294C98.481 123.294 98.3756 123.327 98.2646 123.394C98.1536 123.46 98.0259 123.571 97.8816 123.727C97.7484 123.882 97.6208 124.037 97.4986 124.193C97.3765 124.337 97.2211 124.548 97.0324 124.826C96.8548 125.103 96.705 125.342 96.5829 125.542C96.4608 125.73 96.2832 126.008 96.0501 126.374C95.817 126.74 95.6394 127.018 95.5173 127.207C95.3952 127.395 95.2342 127.651 95.0344 127.972C94.8346 128.294 94.6737 128.544 94.5516 128.722C94.4406 128.899 94.3129 129.094 94.1686 129.305C93.8911 129.715 93.6691 129.921 93.5026 129.921C93.3472 129.921 93.164 129.798 92.9531 129.554C92.7422 129.299 92.6368 129.077 92.6368 128.888C92.6368 128.833 92.6756 128.683 92.7533 128.439C92.9642 127.795 93.1973 127.001 93.4526 126.058C93.7079 125.103 93.8467 124.021 93.8689 122.811C93.9022 122.001 94.0187 121.595 94.2186 121.595C94.4628 121.595 94.707 121.723 94.9512 121.978C95.1954 122.234 95.3175 122.517 95.3175 122.828C95.3175 123.127 95.2231 123.716 95.0344 124.593C94.8568 125.458 94.6459 126.269 94.4017 127.023Z" fill="#FBBF24"/>
<path d="M90.9338 119.298C90.9338 119.076 91.0226 118.865 91.2002 118.665C91.3778 118.465 91.5554 118.365 91.733 118.365C91.9217 118.365 92.1437 118.593 92.399 119.048C92.6543 119.492 92.782 119.864 92.782 120.164C92.782 120.275 92.732 120.374 92.6321 120.463C92.5322 120.552 92.4268 120.596 92.3158 120.596C92.0494 120.596 91.7497 120.435 91.4167 120.114C91.0948 119.792 90.9338 119.52 90.9338 119.298ZM90.8506 121.662C91.0615 121.662 91.2613 121.79 91.45 122.045C91.6387 122.3 91.733 122.55 91.733 122.794C91.733 123.038 91.5721 123.771 91.2502 124.992C90.9283 126.202 90.5231 127.562 90.0347 129.071C89.846 129.626 89.6073 129.904 89.3187 129.904C89.1633 129.904 89.0301 129.843 88.9191 129.721C88.8081 129.588 88.7526 129.443 88.7526 129.288C88.7526 129.121 88.7915 128.866 88.8692 128.522C88.958 128.167 89.0801 127.701 89.2355 127.123C89.402 126.535 89.5296 126.058 89.6184 125.691C89.7183 125.325 89.8182 124.914 89.9181 124.459C90.018 123.993 90.0957 123.621 90.1512 123.344C90.2178 123.055 90.29 122.767 90.3677 122.478C90.5231 121.934 90.6841 121.662 90.8506 121.662Z" fill="#FBBF24"/>
<path d="M81.5563 127.023C82.622 125.214 83.4878 123.871 84.1538 122.994C84.8309 122.106 85.3803 121.662 85.8021 121.662C86.2351 121.662 86.6402 121.89 87.0176 122.345C87.4061 122.8 87.6004 123.283 87.6004 123.793C87.6004 124.593 87.4172 125.569 87.0509 126.724C86.3849 128.855 85.7855 129.921 85.2527 129.921C85.0085 129.921 84.8864 129.754 84.8864 129.421C84.8864 129.188 85.0029 128.716 85.236 128.006C85.4802 127.284 85.7022 126.579 85.902 125.891C86.113 125.192 86.2184 124.67 86.2184 124.326C86.2184 123.971 86.1629 123.71 86.0519 123.544C85.952 123.377 85.8465 123.294 85.7355 123.294C85.6356 123.294 85.5302 123.327 85.4192 123.394C85.3082 123.46 85.1805 123.571 85.0362 123.727C84.903 123.882 84.7754 124.037 84.6533 124.193C84.5312 124.337 84.3758 124.548 84.1871 124.826C84.0095 125.103 83.8596 125.342 83.7375 125.542C83.6154 125.73 83.4378 126.008 83.2047 126.374C82.9716 126.74 82.794 127.018 82.6719 127.207C82.5498 127.395 82.3889 127.651 82.189 127.972C81.9892 128.294 81.8283 128.544 81.7062 128.722C81.5952 128.899 81.4675 129.094 81.3232 129.305C81.0457 129.715 80.8237 129.921 80.6572 129.921C80.5018 129.921 80.3187 129.798 80.1078 129.554C79.8969 129.299 79.7914 129.077 79.7914 128.888C79.7914 128.833 79.8303 128.683 79.908 128.439C80.1189 127.795 80.352 127.001 80.6073 126.058C80.8626 125.103 81.0013 124.021 81.0235 122.811C81.0568 122.001 81.1734 121.595 81.3732 121.595C81.6174 121.595 81.8616 121.723 82.1058 121.978C82.35 122.234 82.4721 122.517 82.4721 122.828C82.4721 123.127 82.3778 123.716 82.189 124.593C82.0114 125.458 81.8005 126.269 81.5563 127.023Z" fill="#FBBF24"/>
<path d="M72.6784 127.023C73.744 125.214 74.6098 123.871 75.2758 122.994C75.9529 122.106 76.5024 121.662 76.9242 121.662C77.3571 121.662 77.7623 121.89 78.1397 122.345C78.5282 122.8 78.7224 123.283 78.7224 123.793C78.7224 124.593 78.5393 125.569 78.173 126.724C77.5069 128.855 76.9075 129.921 76.3747 129.921C76.1305 129.921 76.0084 129.754 76.0084 129.421C76.0084 129.188 76.125 128.716 76.3581 128.006C76.6023 127.284 76.8243 126.579 77.0241 125.891C77.235 125.192 77.3404 124.67 77.3404 124.326C77.3404 123.971 77.2849 123.71 77.1739 123.544C77.074 123.377 76.9686 123.294 76.8576 123.294C76.7577 123.294 76.6522 123.327 76.5412 123.394C76.4302 123.46 76.3026 123.571 76.1583 123.727C76.0251 123.882 75.8974 124.037 75.7753 124.193C75.6532 124.337 75.4978 124.548 75.3091 124.826C75.1315 125.103 74.9817 125.342 74.8596 125.542C74.7375 125.73 74.5599 126.008 74.3268 126.374C74.0936 126.74 73.916 127.018 73.7939 127.207C73.6718 127.395 73.5109 127.651 73.3111 127.972C73.1113 128.294 72.9503 128.544 72.8282 128.722C72.7172 128.899 72.5896 129.094 72.4453 129.305C72.1678 129.715 71.9458 129.921 71.7793 129.921C71.6239 129.921 71.4407 129.798 71.2298 129.554C71.0189 129.299 70.9135 129.077 70.9135 128.888C70.9135 128.833 70.9523 128.683 71.03 128.439C71.2409 127.795 71.474 127.001 71.7293 126.058C71.9846 125.103 72.1234 124.021 72.1456 122.811C72.1789 122.001 72.2954 121.595 72.4952 121.595C72.7394 121.595 72.9836 121.723 73.2278 121.978C73.472 122.234 73.5941 122.517 73.5941 122.828C73.5941 123.127 73.4998 123.716 73.3111 124.593C73.1335 125.458 72.9226 126.269 72.6784 127.023Z" fill="#FBBF24"/>
<path d="M67.6709 121.662C68.1704 121.662 68.631 121.917 69.0528 122.428C69.4746 122.927 69.6855 123.383 69.6855 123.793C69.6855 124.193 69.5468 124.604 69.2693 125.025C69.4025 125.192 69.4691 125.336 69.4691 125.458C69.4691 125.769 69.3969 126.302 69.2526 127.057C69.1194 127.812 69.0362 128.306 69.0029 128.539C68.9807 128.772 68.9585 128.96 68.9363 129.105C68.9141 129.238 68.8863 129.371 68.853 129.504C68.8086 129.782 68.7087 129.921 68.5533 129.921C68.3535 129.921 68.187 129.749 68.0538 129.404C67.9317 129.049 67.8596 128.594 67.8374 128.039C66.8494 129.293 65.9337 129.921 65.0901 129.921C64.5795 129.921 64.0744 129.704 63.5749 129.271C63.0865 128.827 62.8423 128.372 62.8423 127.906C62.8423 127.24 63.0865 126.418 63.5749 125.442C64.0633 124.454 64.696 123.577 65.473 122.811C66.25 122.045 66.9826 121.662 67.6709 121.662ZM68.4368 124.593C68.4368 123.56 68.2314 123.044 67.8207 123.044C67.3878 123.044 66.8827 123.355 66.3055 123.976C65.7283 124.587 65.2399 125.281 64.8403 126.058C64.4407 126.835 64.2409 127.451 64.2409 127.906C64.2409 128.095 64.3186 128.25 64.474 128.372C64.6294 128.483 64.8126 128.539 65.0235 128.539C65.5452 128.539 66.1335 128.189 66.7884 127.49C67.4433 126.779 67.8984 125.919 68.1537 124.909C68.187 124.742 68.2814 124.642 68.4368 124.609V124.593Z" fill="#FBBF24"/>
<path d="M62.4407 118.399C62.4407 120.485 62.0078 123.194 61.142 126.524C60.587 128.788 60.1985 129.921 59.9765 129.921C59.821 129.921 59.6379 129.798 59.427 129.554C59.2272 129.31 59.1273 129.121 59.1273 128.988C59.1273 128.855 59.2882 128.167 59.6101 126.924C59.932 125.68 60.254 124.154 60.5759 122.345C60.8978 120.524 61.0587 118.887 61.0587 117.433C61.0587 117.278 61.0809 117.167 61.1253 117.1C61.1697 117.033 61.2641 117 61.4084 117C61.5527 117 61.758 117.161 62.0244 117.483C62.3019 117.794 62.4407 118.099 62.4407 118.399Z" fill="#FBBF24"/>
<path d="M56.6541 121.612C57.1314 121.612 57.5421 121.917 57.8862 122.528C58.2414 123.138 58.419 123.771 58.419 124.426C58.419 125.07 58.2303 125.719 57.8529 126.374C57.4755 127.018 57.0093 127.595 56.4543 128.106C55.8993 128.616 55.2832 129.044 54.6061 129.388C53.9401 129.721 53.324 129.887 52.7579 129.887C52.5359 129.887 52.325 129.86 52.1252 129.804C52.0808 129.993 52.0031 130.331 51.8921 130.82C51.7811 131.308 51.6867 131.713 51.609 132.035C51.5313 132.357 51.4425 132.701 51.3426 133.067C51.1428 133.822 50.9652 134.2 50.8098 134.2C50.6544 134.2 50.4935 134.078 50.327 133.833C50.1494 133.6 50.0606 133.389 50.0606 133.201C50.0606 133.012 50.2382 132.202 50.5934 130.77C51.659 126.452 52.1918 123.544 52.1918 122.045C52.1918 121.712 52.3139 121.546 52.5581 121.546C52.7579 121.546 52.9966 121.695 53.2741 121.995C53.5627 122.284 53.707 122.606 53.707 122.961C53.707 123.138 53.6848 123.333 53.6404 123.544C54.6283 122.256 55.6329 121.612 56.6541 121.612ZM52.5914 128.589C53.1797 128.589 53.8124 128.389 54.4895 127.989C55.1777 127.59 55.7605 127.062 56.2378 126.407C56.7262 125.741 56.9704 125.081 56.9704 124.426C56.9704 123.505 56.754 123.044 56.3211 123.044C55.8882 123.044 55.2999 123.416 54.5561 124.16C53.8235 124.903 53.2408 125.869 52.8079 127.057L52.4249 128.589H52.5914Z" fill="#FBBF24"/>
<path d="M43.2321 121.662C43.4097 121.662 43.5984 121.795 43.7982 122.062C44.0091 122.317 44.1145 122.606 44.1145 122.927C44.1145 123.149 43.887 123.904 43.4319 125.192C42.9768 126.48 42.666 127.356 42.4995 127.823C42.3441 128.278 42.1276 128.888 41.8501 129.654C41.5837 130.409 41.3228 131.147 41.0675 131.869C40.5125 133.456 39.68 134.25 38.57 134.25C37.9373 134.25 37.3323 134.055 36.7551 133.667C36.1779 133.289 35.8893 132.895 35.8893 132.485C35.8893 132.329 35.9615 132.157 36.1058 131.969C36.239 131.78 36.3555 131.686 36.4554 131.686C36.5553 131.686 36.7163 131.808 36.9383 132.052C37.5821 132.784 38.1315 133.151 38.5867 133.151C38.9308 133.151 39.2416 132.845 39.5191 132.235C39.7966 131.636 40.0574 130.953 40.3016 130.187C40.5569 129.432 40.6957 129.016 40.7179 128.938C40.7512 128.861 40.7845 128.761 40.8178 128.639C40.8622 128.516 40.901 128.405 40.9343 128.306C40.1462 129.382 39.3692 129.921 38.6033 129.921C38.1371 129.921 37.7042 129.704 37.3046 129.271C36.9161 128.838 36.7218 128.328 36.7218 127.739C36.7218 127.151 36.8661 126.357 37.1547 125.358C37.4433 124.359 37.7819 123.494 38.1704 122.761C38.5589 122.028 38.8753 121.662 39.1195 121.662C39.3193 121.662 39.5024 121.756 39.6689 121.945C39.8465 122.123 39.9353 122.306 39.9353 122.495C39.9353 122.683 39.791 123.077 39.5024 123.677C38.6033 125.519 38.1537 126.951 38.1537 127.973C38.1537 128.15 38.2092 128.3 38.3202 128.422C38.4312 128.533 38.5645 128.589 38.7199 128.589C39.1195 128.589 39.5968 128.233 40.1518 127.523C40.7068 126.813 41.2174 125.969 41.6836 124.992C42.0721 124.171 42.4773 123.122 42.8991 121.845C42.9435 121.723 43.0545 121.662 43.2321 121.662Z" fill="#FBBF24"/>
<path d="M26.1479 118.715C26.1479 118.526 26.1701 118.399 26.2145 118.332C26.27 118.254 26.3643 118.215 26.4975 118.215C26.6418 118.215 26.886 118.365 27.2301 118.665C27.5743 118.965 27.7574 119.231 27.7796 119.464C27.824 119.864 28.0349 120.574 28.4123 121.595C28.7897 122.606 29.2226 123.632 29.711 124.676C30.3326 123.943 31.1152 122.972 32.0587 121.762C33.0022 120.541 33.7015 119.675 34.1566 119.165C34.6117 118.654 34.9392 118.399 35.139 118.399C35.3388 118.399 35.5497 118.51 35.7717 118.732C35.9937 118.954 36.1047 119.165 36.1047 119.364C36.1047 119.564 36.0825 119.792 36.0381 120.047C35.9937 120.302 35.916 120.641 35.805 121.063C35.7051 121.473 35.6108 121.834 35.522 122.145C35.4443 122.445 35.3111 122.916 35.1224 123.56C34.9337 124.204 34.7894 124.72 34.6895 125.109C34.5895 125.486 34.473 125.952 34.3398 126.507C34.2066 127.051 34.0956 127.501 34.0068 127.856C33.9291 128.2 33.8458 128.539 33.757 128.872C33.5905 129.515 33.4296 129.837 33.2742 129.837C33.1299 129.837 32.9856 129.704 32.8413 129.438C32.697 129.171 32.6248 128.816 32.6248 128.372C32.6248 127.917 32.8135 126.885 33.1909 125.275C33.5794 123.666 33.9957 122.256 34.4397 121.046C32.3973 123.599 31.1374 125.125 30.6601 125.625C30.1939 126.124 29.8054 126.374 29.4946 126.374C29.1949 126.374 28.9118 126.202 28.6454 125.858C28.2458 125.281 27.7075 123.915 27.0303 121.762C26.8416 122.927 26.6307 123.926 26.3976 124.759C26.1756 125.58 26.0258 126.13 25.9481 126.407C25.8815 126.674 25.8204 126.896 25.7649 127.073C25.7205 127.251 25.665 127.462 25.5984 127.706C25.5318 127.939 25.4708 128.133 25.4153 128.289C25.3709 128.444 25.3209 128.616 25.2654 128.805C25.2099 128.983 25.16 129.127 25.1156 129.238C25.0823 129.349 25.0434 129.454 24.999 129.554C24.9102 129.743 24.8436 129.837 24.7992 129.837C24.666 129.837 24.4995 129.693 24.2997 129.404C24.0999 129.116 24 128.838 24 128.572C24 128.305 24.3552 126.774 25.0656 123.976C25.7871 121.179 26.1479 119.425 26.1479 118.715Z" fill="#FBBF24"/>
</svg>
